<svg height="500" node-id="1" sillyvg="true" template-height="500" template-width="500" version="1.1" viewBox="0 0 500 500" width="500" xmlns="http://www.w3.org/2000/svg" xmlns:xlink="http://www.w3.org/1999/xlink"><defs node-id="40"></defs><path d="M 404.87 397.55 L 115.91 397.55 C 112.75 397.55 110.16 394.96 110.16 391.79 L 110.16 196.16 C 110.16 192.99 112.75 190.40 115.91 190.40 L 404.87 190.40 C 408.03 190.40 410.62 192.99 410.62 196.16 L 410.62 391.79 C 410.62 394.96 408.03 397.55 404.87 397.55 Z" fill="#a1788f" fill-rule="nonzero" node-id="44" stroke="none" target-height="207.145" target-width="300.462" target-x="110.158" target-y="190.402"></path><g node-id="117"><path d="M 412.26 194.22 L 95.89 194.22 C 94.99 194.22 94.25 193.48 94.25 192.58 L 94.25 188.13 C 94.25 187.22 94.99 186.48 95.89 186.48 L 412.26 186.48 C 413.17 186.48 413.91 187.22 413.91 188.13 L 413.91 192.58 C 413.91 193.48 413.17 194.22 412.26 194.22 Z" fill="#231d5a" fill-rule="nonzero" group-id="1" node-id="47" stroke="none" target-height="7.7360077" target-width="319.65402" target-x="94.253" target-y="186.484"></path><path d="M 399.45 194.22 L 109.23 194.22 C 106.94 194.22 105.06 196.10 105.06 198.39 L 105.06 387.33 C 105.06 389.62 106.94 391.50 109.23 391.50 L 399.45 391.50 C 401.74 391.50 403.62 389.62 403.62 387.33 L 403.62 198.39 C 403.62 196.10 401.74 194.22 399.45 194.22 Z" fill="#ffffff" fill-rule="nonzero" group-id="1" node-id="49" stroke="none" target-height="197.27798" target-width="298.55402" target-x="105.062" target-y="194.22"></path><path d="M 252.77 222.70 L 123.52 222.70 C 122.80 222.70 122.21 222.11 122.21 221.39 L 122.21 214.17 C 122.21 213.45 122.80 212.86 123.52 212.86 L 252.77 212.86 C 253.49 212.86 254.08 213.45 254.08 214.17 L 254.08 221.39 C 254.08 222.12 253.49 222.70 252.77 222.70 Z" fill="#5a78eb" fill-rule="nonzero" group-id="1" node-id="51" stroke="none" target-height="9.847" target-width="131.872" target-x="122.209" target-y="212.857"></path><path d="M 227.45 316.25 L 123.52 316.25 C 122.80 316.25 122.21 315.65 122.21 314.93 L 122.21 307.71 C 122.21 306.99 122.80 306.40 123.52 306.40 L 227.45 306.40 C 228.17 306.40 228.76 306.99 228.76 307.71 L 228.76 314.93 C 228.76 315.65 228.17 316.25 227.45 316.25 Z" fill="#5a78eb" fill-rule="nonzero" group-id="1" node-id="53" stroke="none" target-height="9.846985" target-width="106.552" target-x="122.209" target-y="306.398"></path><path d="M 352.64 245.21 L 123.52 245.21 C 122.80 245.21 122.21 244.62 122.21 243.90 L 122.21 236.67 C 122.21 235.95 122.80 235.36 123.52 235.36 L 352.64 235.36 C 353.36 235.36 353.95 235.95 353.95 236.67 L 353.95 243.90 C 353.95 244.62 353.36 245.21 352.64 245.21 Z" fill="#5a78eb" fill-rule="nonzero" group-id="1" node-id="55" stroke="none" target-height="9.847" target-width="231.74199" target-x="122.209" target-y="235.363"></path><path d="M 139.25 273.17 L 123.28 273.17 C 122.69 273.17 122.21 272.68 122.21 272.09 L 122.21 256.13 C 122.21 255.54 122.69 255.06 123.28 255.06 L 139.25 255.06 C 139.84 255.06 140.32 255.54 140.32 256.13 L 140.32 272.09 C 140.32 272.68 139.84 273.17 139.25 273.17 Z" fill="#fa6464" fill-rule="nonzero" group-id="1" node-id="57" stroke="none" target-height="18.110992" target-width="18.111008" target-x="122.209" target-y="255.056"></path><path d="M 139.25 298.84 L 123.28 298.84 C 122.69 298.84 122.21 298.36 122.21 297.76 L 122.21 281.80 C 122.21 281.21 122.69 280.73 123.28 280.73 L 139.25 280.73 C 139.84 280.73 140.32 281.21 140.32 281.80 L 140.32 297.76 C 140.32 298.36 139.84 298.84 139.25 298.84 Z" fill="#5a78eb" fill-rule="nonzero" group-id="1" node-id="59" stroke="none" target-height="18.111023" target-width="18.111008" target-x="122.209" target-y="280.727"></path><path d="M 134.15 352.46 L 123.28 352.46 C 122.69 352.46 122.21 351.98 122.21 351.39 L 122.21 340.53 C 122.21 339.94 122.69 339.45 123.28 339.45 L 134.15 339.45 C 134.74 339.45 135.22 339.94 135.22 340.53 L 135.22 351.39 C 135.22 351.98 134.74 352.46 134.15 352.46 Z" fill="#fdd740" fill-rule="nonzero" group-id="1" node-id="61" stroke="none" target-height="13.011993" target-width="13.011993" target-x="122.209" target-y="339.453"></path><path d="M 187.06 369.16 L 119.22 369.16 C 118.84 369.16 118.53 368.85 118.53 368.47 C 118.53 368.08 118.84 367.77 119.22 367.77 L 186.42 367.77 L 218.77 330.32 L 324.94 330.32 C 325.32 330.32 325.63 330.63 325.63 331.01 C 325.63 331.40 325.32 331.71 324.94 331.71 L 219.41 331.71 L 187.06 369.16 Z" fill="#232323" fill-rule="nonzero" group-id="1" node-id="63" stroke="none" target-height="38.839996" target-width="207.10599" target-x="118.526" target-y="330.32"></path><path d="M 324.94 339.44 L 222.08 339.44 C 221.69 339.44 221.38 339.13 221.38 338.75 C 221.38 338.37 221.69 338.06 222.08 338.06 L 324.94 338.06 C 325.32 338.06 325.63 338.37 325.63 338.75 C 325.63 339.13 325.32 339.44 324.94 339.44 Z" fill="#232323" fill-rule="nonzero" group-id="1" node-id="65" stroke="none" target-height="1.3880005" target-width="104.246994" target-x="221.385" target-y="338.057"></path><path d="M 304.19 346.83 L 222.08 346.83 C 221.69 346.83 221.38 346.52 221.38 346.13 C 221.38 345.75 221.69 345.44 222.08 345.44 L 304.19 345.44 C 304.57 345.44 304.88 345.75 304.88 346.13 C 304.88 346.52 304.57 346.83 304.19 346.83 Z" fill="#232323" fill-rule="nonzero" group-id="1" node-id="67" stroke="none" target-height="1.3880005" target-width="83.49901" target-x="221.385" target-y="345.441"></path><path d="M 239.84 355.62 L 222.08 355.62 C 221.69 355.62 221.38 355.31 221.38 354.93 C 221.38 354.54 221.69 354.23 222.08 354.23 L 239.84 354.23 C 240.22 354.23 240.53 354.54 240.53 354.93 C 240.53 355.31 240.22 355.62 239.84 355.62 Z" fill="#232323" fill-rule="nonzero" group-id="1" node-id="69" stroke="none" target-height="1.3880005" target-width="19.147003" target-x="221.385" target-y="354.232"></path><path d="M 280.28 355.62 L 244.76 355.62 C 244.38 355.62 244.07 355.31 244.07 354.93 C 244.07 354.54 244.38 354.23 244.76 354.23 L 280.28 354.23 C 280.66 354.23 280.97 354.54 280.97 354.93 C 280.97 355.31 280.66 355.62 280.28 355.62 Z" fill="#232323" fill-rule="nonzero" group-id="1" node-id="71" stroke="none" target-height="1.3880005" target-width="36.904984" target-x="244.067" target-y="354.232"></path><path d="M 318.26 355.62 L 284.50 355.62 C 284.11 355.62 283.80 355.31 283.80 354.93 C 283.80 354.54 284.11 354.23 284.50 354.23 L 318.26 354.23 C 318.64 354.23 318.95 354.54 318.95 354.93 C 318.95 355.31 318.64 355.62 318.26 355.62 Z" fill="#232323" fill-rule="nonzero" group-id="1" node-id="73" stroke="none" target-height="1.3880005" target-width="35.147003" target-x="283.804" target-y="354.232"></path><g node-id="118"><g node-id="119"><path d="M 324.94 284.95 C 324.94 296.51 315.58 305.88 304.02 305.88 C 292.46 305.88 283.10 296.51 283.10 284.95 C 283.10 273.40 292.46 264.03 304.02 264.03 C 315.58 264.03 324.94 273.40 324.94 284.95 Z" fill="#fdd740" fill-rule="nonzero" group-id="1,2,3" node-id="79" stroke="none" target-height="41.84601" target-width="41.84601" target-x="283.097" target-y="264.03"></path><path d="M 304.02 306.57 C 292.10 306.57 282.40 296.87 282.40 284.95 C 282.40 273.03 292.10 263.33 304.02 263.33 C 315.94 263.33 325.64 273.03 325.64 284.95 C 325.64 296.87 315.94 306.57 304.02 306.57 Z M 304.02 264.72 C 292.87 264.72 283.79 273.80 283.79 284.95 C 283.79 296.11 292.87 305.18 304.02 305.18 C 315.18 305.18 324.25 296.11 324.25 284.95 C 324.25 273.80 315.17 264.72 304.02 264.72 Z" fill="#232323" fill-rule="nonzero" group-id="1,2,3" node-id="81" stroke="none" target-height="43.235016" target-width="43.234985" target-x="282.403" target-y="263.335"></path></g><path d="M 304.02 302.69 C 294.24 302.69 286.28 294.73 286.28 284.95 C 286.28 279.21 289.08 273.80 293.77 270.48 C 296.77 268.34 300.32 267.21 304.02 267.21 C 304.40 267.21 304.71 267.52 304.71 267.91 C 304.71 268.29 304.40 268.60 304.02 268.60 C 300.61 268.60 297.34 269.64 294.57 271.61 C 290.25 274.67 287.67 279.66 287.67 284.95 C 287.67 293.97 295.00 301.30 304.02 301.30 C 307.97 301.30 311.79 299.88 314.76 297.28 C 315.05 297.03 315.49 297.06 315.74 297.35 C 315.99 297.64 315.96 298.07 315.67 298.33 C 312.44 301.14 308.31 302.69 304.02 302.69 Z" fill="#232323" fill-rule="nonzero" group-id="1,2" node-id="84" stroke="none" target-height="35.477997" target-width="29.628357" target-x="286.281" target-y="267.213"></path><path d="M 304.56 298.22 C 301.35 298.22 298.26 297.06 295.84 294.96 C 295.43 294.60 295.38 293.96 295.75 293.55 C 296.11 293.13 296.74 293.09 297.16 293.45 C 299.21 295.24 301.84 296.22 304.56 296.22 C 310.77 296.22 315.83 291.17 315.83 284.95 C 315.83 281.31 314.05 277.87 311.07 275.75 C 309.16 274.40 306.91 273.68 304.56 273.68 C 304.00 273.68 303.56 273.24 303.56 272.68 C 303.56 272.13 304.00 271.68 304.56 271.68 C 307.33 271.68 309.98 272.53 312.23 274.12 C 315.73 276.61 317.83 280.66 317.83 284.95 C 317.83 292.27 311.87 298.22 304.56 298.22 Z" fill="#232323" fill-rule="nonzero" group-id="1,2" node-id="86" stroke="none" target-height="26.53897" target-width="22.325592" target-x="295.5014" target-y="271.683"></path></g><path d="M 326.71 191.03 L 248.10 141.39 L 169.49 189.65 L 168.04 187.29 L 247.38 138.57 C 247.84 138.29 248.40 138.30 248.85 138.58 L 328.19 188.69 L 326.71 191.03 Z" fill="#232323" fill-rule="nonzero" group-id="1" node-id="89" stroke="none" target-height="52.671387" target-width="160.153" target-x="168.04" target-y="138.36362"></path><path d="M 255.76 139.75 C 255.76 143.98 252.34 147.41 248.11 147.41 C 243.88 147.41 240.45 143.98 240.45 139.75 C 240.45 135.52 243.88 132.09 248.11 132.09 C 252.34 132.09 255.76 135.52 255.76 139.75 Z" fill="#231d5a" fill-rule="nonzero" group-id="1" node-id="91" stroke="none" target-height="15.311996" target-width="15.311996" target-x="240.453" target-y="132.095"></path><path d="M 258.55 255.28 L 186.17 255.28 C 185.78 255.28 185.47 254.97 185.47 254.59 C 185.47 254.20 185.78 253.89 186.17 253.89 L 258.55 253.89 C 258.93 253.89 259.24 254.20 259.24 254.59 C 259.24 254.97 258.93 255.28 258.55 255.28 Z" fill="#232323" fill-rule="nonzero" group-id="1" node-id="93" stroke="none" target-height="1.3880005" target-width="73.770004" target-x="185.472" target-y="253.893"></path><path d="M 216.79 261.72 L 186.17 261.72 C 185.78 261.72 185.47 261.41 185.47 261.02 C 185.47 260.64 185.78 260.33 186.17 260.33 L 216.79 260.33 C 217.17 260.33 217.48 260.64 217.48 261.02 C 217.48 261.41 217.17 261.72 216.79 261.72 Z" fill="#232323" fill-rule="nonzero" group-id="1" node-id="95" stroke="none" target-height="1.3880005" target-width="32.010986" target-x="185.473" target-y="260.331"></path><path d="M 238.37 261.55 L 224.44 261.55 C 224.06 261.55 223.75 261.24 223.75 260.85 C 223.75 260.47 224.06 260.16 224.44 260.16 L 238.37 260.16 C 238.75 260.16 239.06 260.47 239.06 260.85 C 239.06 261.24 238.75 261.55 238.37 261.55 Z" fill="#232323" fill-rule="nonzero" group-id="1" node-id="97" stroke="none" target-height="1.3880005" target-width="15.307999" target-x="223.751" target-y="260.158"></path><path d="M 258.55 268.16 L 186.17 268.16 C 185.78 268.16 185.47 267.85 185.47 267.46 C 185.47 267.08 185.78 266.77 186.17 266.77 L 258.55 266.77 C 258.93 266.77 259.24 267.08 259.24 267.46 C 259.24 267.85 258.93 268.16 258.55 268.16 Z" fill="#232323" fill-rule="nonzero" group-id="1" node-id="99" stroke="none" target-height="1.3880005" target-width="73.770004" target-x="185.472" target-y="266.769"></path><path d="M 234.88 274.60 L 186.17 274.60 C 185.78 274.60 185.47 274.29 185.47 273.90 C 185.47 273.52 185.78 273.21 186.17 273.21 L 234.88 273.21 C 235.27 273.21 235.58 273.52 235.58 273.90 C 235.58 274.29 235.27 274.60 234.88 274.60 Z" fill="#232323" fill-rule="nonzero" group-id="1" node-id="101" stroke="none" target-height="1.3880005" target-width="50.105988" target-x="185.473" target-y="273.207"></path><path d="M 250.89 274.60 L 239.76 274.60 C 239.37 274.60 239.06 274.29 239.06 273.90 C 239.06 273.52 239.37 273.21 239.76 273.21 L 250.89 273.21 C 251.28 273.21 251.59 273.52 251.59 273.90 C 251.59 274.29 251.28 274.60 250.89 274.60 Z" fill="#232323" fill-rule="nonzero" group-id="1" node-id="103" stroke="none" target-height="1.3880005" target-width="12.524002" target-x="239.063" target-y="273.207"></path><path d="M 194.52 281.03 L 186.17 281.03 C 185.78 281.03 185.47 280.72 185.47 280.34 C 185.47 279.95 185.78 279.64 186.17 279.64 L 194.52 279.64 C 194.90 279.64 195.21 279.95 195.21 280.34 C 195.21 280.72 194.90 281.03 194.52 281.03 Z" fill="#232323" fill-rule="nonzero" group-id="1" node-id="105" stroke="none" target-height="1.3880005" target-width="9.738998" target-x="185.473" target-y="279.645"></path><path d="M 217.49 281.03 L 200.78 281.03 C 200.40 281.03 200.09 280.72 200.09 280.34 C 200.09 279.95 200.40 279.64 200.78 279.64 L 217.49 279.64 C 217.87 279.64 218.18 279.95 218.18 280.34 C 218.18 280.72 217.87 281.03 217.49 281.03 Z" fill="#232323" fill-rule="nonzero" group-id="1" node-id="107" stroke="none" target-height="1.3880005" target-width="18.091995" target-x="200.088" target-y="279.645"></path><path d="M 253.68 281.03 L 221.66 281.03 C 221.28 281.03 220.97 280.72 220.97 280.34 C 220.97 279.95 221.28 279.64 221.66 279.64 L 253.68 279.64 C 254.06 279.64 254.37 279.95 254.37 280.34 C 254.37 280.72 254.06 281.03 253.68 281.03 Z" fill="#232323" fill-rule="nonzero" group-id="1" node-id="109" stroke="none" target-height="1.3880005" target-width="33.403" target-x="220.968" target-y="279.645"></path><path d="M 347.59 370.82 L 335.15 370.82 C 334.75 370.82 334.41 370.48 334.41 370.07 L 334.41 340.94 C 334.41 340.53 334.75 340.19 335.15 340.19 L 347.59 340.19 C 348.00 340.19 348.33 340.53 348.33 340.94 L 348.33 370.07 C 348.33 370.48 348.00 370.82 347.59 370.82 Z" fill="#fa6464" fill-rule="nonzero" group-id="1" node-id="111" stroke="none" target-height="30.622986" target-width="13.918976" target-x="334.411" target-y="340.194"></path><path d="M 368.47 370.82 L 356.03 370.82 C 355.62 370.82 355.29 370.48 355.29 370.07 L 355.29 293.61 C 355.29 293.20 355.62 292.87 356.03 292.87 L 368.47 292.87 C 368.88 292.87 369.21 293.20 369.21 293.61 L 369.21 370.07 C 369.21 370.48 368.88 370.82 368.47 370.82 Z" fill="#fa6464" fill-rule="nonzero" group-id="1" node-id="113" stroke="none" target-height="77.94998" target-width="13.919006" target-x="355.291" target-y="292.867"></path><path d="M 389.35 370.82 L 376.91 370.82 C 376.50 370.82 376.17 370.48 376.17 370.07 L 376.17 254.63 C 376.17 254.23 376.50 253.89 376.91 253.89 L 389.35 253.89 C 389.76 253.89 390.09 254.23 390.09 254.63 L 390.09 370.07 C 390.09 370.48 389.76 370.82 389.35 370.82 Z" fill="#fa6464" fill-rule="nonzero" group-id="1" node-id="115" stroke="none" target-height="116.92499" target-width="13.919006" target-x="376.171" target-y="253.892"></path></g></svg>